HIERARCHY
ROOT SpineBase
{
  OFFSET 0.000000 0.000000 0.000000
  CHANNELS 6 Xposition Yposition Zposition Zrotation Xrotation Yrotation
  JOINT SpineMid
  {
    OFFSET -0.000000 30.676938 0.000000
    CHANNELS 3 Zrotation Xrotation Yrotation
    JOINT SpineShoulder
    {
      OFFSET 0.091627 22.863602 -0.707453
      CHANNELS 3 Zrotation Xrotation Yrotation
      JOINT Neck
      {
        OFFSET 0.065291 7.590325 -0.552556
        CHANNELS 3 Zrotation Xrotation Yrotation
        JOINT Head
        {
          OFFSET -2.810936 10.879995 3.067025
          CHANNELS 3 Zrotation Xrotation Yrotation
          End Site
          {
            OFFSET 0 0 0
          }
        }
      }
      JOINT ShoulderLeft
      {
        OFFSET -3.993734 -7.075643 -13.750625
        CHANNELS 3 Zrotation Xrotation Yrotation
        JOINT ElbowLeft
        {
          OFFSET -4.517810 -20.619602 -3.052125
          CHANNELS 3 Zrotation Xrotation Yrotation
          JOINT WristLeft
          {
            OFFSET -2.222831 -19.275228 6.575633
            CHANNELS 3 Zrotation Xrotation Yrotation
            JOINT HandLeft
            {
              OFFSET -1.870460 -8.163370 0.647807
              CHANNELS 3 Zrotation Xrotation Yrotation
              JOINT HandTipLeft
              {
                OFFSET -2.735756 -8.216636 1.078629
                CHANNELS 3 Zrotation Xrotation Yrotation
                End Site
                {
                  OFFSET 0 0 0
                }
              }
              JOINT ThumbLeft
              {
                OFFSET -3.170320 1.637955 -3.831050
                CHANNELS 3 Zrotation Xrotation Yrotation
                End Site
                {
                  OFFSET 0 0 0
                }
              }
            }
          }
        }
      }
      JOINT ShoulderRight
      {
        OFFSET 4.024546 -3.635148 -5.305986
        CHANNELS 3 Zrotation Xrotation Yrotation
        JOINT ElbowRight
        {
          OFFSET -11.531498 -21.707049 -11.019981
          CHANNELS 3 Zrotation Xrotation Yrotation
          JOINT WristRight
          {
            OFFSET -5.162772 -21.362858 2.884292
            CHANNELS 3 Zrotation Xrotation Yrotation
            JOINT HandRight
            {
              OFFSET -0.468391 -7.730501 3.450444
              CHANNELS 3 Zrotation Xrotation Yrotation
              JOINT HandTipRight
              {
                OFFSET -3.086775 -8.263268 0.366443
                CHANNELS 3 Zrotation Xrotation Yrotation
                End Site
                {
                  OFFSET 0 0 0
                }
              }
              JOINT ThumbRight
              {
                OFFSET -1.381939 4.973381 -4.964915
                CHANNELS 3 Zrotation Xrotation Yrotation
                End Site
                {
                  OFFSET 0 0 0
                }
              }
            }
          }
        }
      }
    }
  }
  JOINT HipLeft
  {
    OFFSET -3.802547 0.034366 -0.438813
    CHANNELS 3 Zrotation Xrotation Yrotation
    JOINT KneeLeft
    {
      OFFSET 16.028708 -31.263275 8.924716
      CHANNELS 3 Zrotation Xrotation Yrotation
      JOINT AnkleLeft
      {
        OFFSET 5.741227 -31.414883 1.500274
        CHANNELS 3 Zrotation Xrotation Yrotation
        JOINT FootLeft
        {
          OFFSET 6.942046 -2.362607 -9.963602
          CHANNELS 3 Zrotation Xrotation Yrotation
          End Site
          {
            OFFSET 0 0 0
          }
        }
      }
    }
  }
  JOINT HipRight
  {
    OFFSET 4.342618 2.566842 -6.156823
    CHANNELS 3 Zrotation Xrotation Yrotation
    JOINT KneeRight
    {
      OFFSET -3.383801 -31.581212 -1.567912
      CHANNELS 3 Zrotation Xrotation Yrotation
      JOINT AnkleRight
      {
        OFFSET 7.074024 -32.384756 -0.157817
        CHANNELS 3 Zrotation Xrotation Yrotation
        JOINT FootRight
        {
          OFFSET 7.224211 -2.204948 -10.124711
          CHANNELS 3 Zrotation Xrotation Yrotation
          End Site
          {
            OFFSET 0 0 0
          }
        }
      }
    }
  }
}
MOTION
Frames: 8
Frame Time: 0.033333
-30.911857 70.765175 291.373785 0.000000 0.000000 35.069346 -0.000000 0.000000 -35.069346 -0.000000 0.000000 0.000000 -0.000000 0.000000 0.000000 0.000000 0.000000 0.000000 -0.000000 0.000000 0.000000 -0.000000 0.000000 0.000000 -0.000000 0.000000 0.000000 -0.000000 0.000000 0.000000 0.000000 0.000000 0.000000 0.000000 0.000000 0.000000 -0.000000 0.000000 0.000000 -0.000000 0.000000 0.000000 -0.000000 0.000000 0.000000 -0.000000 0.000000 0.000000 0.000000 0.000000 0.000000 0.000000 0.000000 0.000000 -0.000000 0.000000 -35.069346 -0.000000 0.000000 0.000000 -0.000000 0.000000 0.000000 0.000000 0.000000 0.000000 -0.000000 0.000000 -35.069346 -0.000000 0.000000 0.000000 -0.000000 0.000000 0.000000 0.000000 0.000000 0.000000
-30.976834 70.746388 291.373054 0.008493 0.001094 34.509427 -0.007618 0.003910 -34.509427 -0.000000 0.000000 0.000000 -0.000000 0.000000 0.000000 0.000000 0.000000 0.000000 -0.000000 0.000000 0.000000 -0.000000 0.000000 0.000000 -0.000000 0.000000 0.000000 -1.233722 1.152988 -0.532243 0.000000 0.000000 0.000000 0.000000 0.000000 0.000000 1.036036 -1.921508 0.519171 -0.274315 0.196295 0.021467 -2.257558 1.516688 -1.125042 1.518241 1.744670 0.097687 0.000000 0.000000 0.000000 0.000000 0.000000 0.000000 -0.007618 0.003910 -34.509427 -0.000000 0.000000 0.000000 -0.108190 0.161161 0.927006 0.000000 0.000000 0.000000 -0.007618 0.003910 -34.509427 -0.000000 0.000000 0.000000 -1.695186 -2.015190 1.322397 0.000000 0.000000 0.000000
-31.039758 70.734692 291.374472 0.015932 0.001376 34.075277 -0.013967 0.007787 -34.075276 -0.000000 0.000000 0.000000 -0.000000 0.000000 0.000000 0.000000 0.000000 0.000000 -0.000000 0.000000 0.000000 -0.000000 0.000000 0.000000 -0.384826 -1.179711 0.235441 -1.708193 3.067238 -1.064834 0.000000 0.000000 0.000000 0.000000 0.000000 0.000000 1.649350 -3.089220 0.867074 -0.429759 0.226407 0.043717 -3.845011 2.446502 -1.859380 2.686247 3.158202 0.163904 0.000000 0.000000 0.000000 0.000000 0.000000 0.000000 -0.013967 0.007787 -34.075276 -0.000000 0.000000 0.000000 -0.179208 0.266129 1.530094 0.000000 0.000000 0.000000 -0.013967 0.007787 -34.075276 -0.000000 0.000000 0.000000 -3.125072 -3.811184 2.319235 0.000000 0.000000 0.000000
-31.100629 70.730086 291.378041 0.022320 0.000844 33.763645 -0.019025 0.011703 -33.763643 -0.000000 0.000000 0.000000 -0.810793 -0.012856 0.225570 0.000000 0.000000 0.000000 -0.000000 0.000000 0.000000 -0.257299 0.921214 -0.192423 -0.085581 -2.711354 0.567094 -2.272954 4.010665 -1.331005 0.000000 0.000000 0.000000 0.000000 0.000000 0.000000 1.822542 -3.502331 1.015858 -0.484669 0.126166 0.050605 -4.799852 2.707775 -2.284638 3.565731 4.233764 0.224006 0.000000 0.000000 0.000000 0.000000 0.000000 0.000000 -0.019025 0.011703 -33.763643 -0.000000 0.000000 0.000000 -0.211811 0.316850 1.813391 0.000000 0.000000 0.000000 -0.019025 0.011703 -33.763643 -0.000000 0.000000 0.000000 -4.170783 -5.192754 2.892726 0.000000 0.000000 0.000000
-31.159446 70.732571 291.383759 0.027658 -0.000500 33.572284 -0.022768 0.015711 -33.572281 -0.000000 0.000000 0.000000 -1.024937 -0.074512 0.269688 0.000000 0.000000 0.000000 -0.000000 0.000000 0.000000 -0.291401 1.057263 -0.219275 0.148189 -3.456809 0.755412 -2.691922 4.567386 -1.452545 0.000000 0.000000 0.000000 0.000000 0.000000 0.000000 1.550695 -3.164026 0.957083 -0.446123 -0.086384 0.034236 -5.146272 2.257902 -2.450755 4.193159 4.973653 0.292357 0.000000 0.000000 0.000000 0.000000 0.000000 0.000000 -0.022768 0.015711 -33.572281 -0.000000 0.000000 0.000000 -0.205410 0.314228 1.778775 0.000000 0.000000 0.000000 -0.022768 0.015711 -33.572281 -0.000000 0.000000 0.000000 -4.734330 -5.990249 2.977932 0.000000 0.000000 0.000000
-31.216209 70.742146 291.391627 0.031947 -0.002659 33.499950 -0.025173 0.019850 -33.499945 -0.000000 0.000000 0.000000 -1.211059 -0.164698 0.298047 0.000000 0.000000 0.000000 -0.851833 0.075498 0.109921 0.552495 1.036067 -0.338074 0.522711 -4.109810 0.947045 -2.977111 4.728074 -1.438240 0.000000 0.000000 0.000000 0.000000 0.000000 0.000000 0.841040 -2.078145 0.701564 -0.308495 -0.413363 -0.004437 -4.899130 1.087597 -2.375833 4.583978 5.387937 0.374207 0.000000 0.000000 0.000000 0.000000 0.000000 0.000000 -0.025173 0.019850 -33.499945 -0.000000 0.000000 0.000000 -0.159990 0.258085 1.425637 0.000000 0.000000 0.000000 -0.025173 0.019850 -33.499945 -0.000000 0.000000 0.000000 -4.754046 -6.100833 2.552928 0.000000 0.000000 0.000000
-31.270526 70.753633 291.396645 0.038019 -0.008662 33.462580 -0.026941 0.028190 -33.462571 -0.000000 0.000000 0.000000 -1.341292 -0.289036 0.301188 0.000000 0.000000 0.000000 -1.255765 0.358695 0.110908 0.980636 0.689211 -0.318188 1.202008 -4.732403 1.181386 -2.996029 3.998108 -1.113141 0.000000 0.000000 0.000000 0.000000 0.000000 0.000000 -0.000000 0.000000 0.000000 -0.336018 -1.149885 0.228691 -3.870197 -1.071657 -1.954725 5.213060 5.096410 0.602334 0.000000 0.000000 0.000000 0.000000 0.000000 0.000000 -0.026941 0.028190 -33.462571 -0.000000 0.000000 0.000000 -0.000000 0.000000 0.000000 0.000000 0.000000 0.000000 -0.026941 0.028190 -33.462571 -0.000000 0.000000 0.000000 -3.826790 -4.996814 1.491742 0.000000 0.000000 0.000000
-31.329135 70.779837 291.412077 0.041965 -0.018853 33.653580 -0.024484 0.038949 -33.653564 -0.000000 0.000000 0.000000 -1.495115 -0.438494 0.303831 0.000000 0.000000 0.000000 -1.719872 0.839231 0.082948 1.513049 -0.005049 -0.226547 2.228236 -5.447995 1.498442 -3.225741 3.279815 -0.753010 0.000000 0.000000 0.000000 0.000000 0.000000 0.000000 -1.972895 2.523170 -0.289593 0.423138 -1.649901 -0.100178 -2.260124 -3.571776 -1.248555 5.322018 4.609938 0.740760 0.000000 0.000000 0.000000 0.000000 0.000000 0.000000 -0.024484 0.038949 -33.653564 -0.000000 0.000000 0.000000 -0.000000 0.000000 0.000000 0.000000 0.000000 0.000000 -0.024484 0.038949 -33.653564 -0.000000 0.000000 0.000000 -2.388075 -3.318973 0.026020 0.000000 0.000000 0.000000
